<?xml version="1.0" encoding="UTF-8" standalone="no"?>
<!-- Created with Inkscape (http://www.inkscape.org/) -->

<svg
   xmlns:dc="http://purl.org/dc/elements/1.1/"
   xmlns:cc="http://creativecommons.org/ns#"
   xmlns:rdf="http://www.w3.org/1999/02/22-rdf-syntax-ns#"
   xmlns:svg="http://www.w3.org/2000/svg"
   xmlns="http://www.w3.org/2000/svg"
   xmlns:sodipodi="http://sodipodi.sourceforge.net/DTD/sodipodi-0.dtd"
   xmlns:inkscape="http://www.inkscape.org/namespaces/inkscape"
   width="100.86736"
   height="121.61593"
   id="svg3240"
   version="1.1"
   inkscape:version="0.48.3.1 r9886"
   sodipodi:docname="cthulhguin.svg">
  <defs
     id="defs3242" />
  <sodipodi:namedview
     id="base"
     pagecolor="#ffffff"
     bordercolor="#666666"
     borderopacity="1.0"
     inkscape:pageopacity="0.0"
     inkscape:pageshadow="2"
     inkscape:zoom="5.6568542"
     inkscape:cx="55.209044"
     inkscape:cy="60.076203"
     inkscape:document-units="px"
     inkscape:current-layer="layer1"
     showgrid="false"
     fit-margin-top="0"
     fit-margin-left="0"
     fit-margin-right="0"
     fit-margin-bottom="0"
     inkscape:window-width="1440"
     inkscape:window-height="848"
     inkscape:window-x="0"
     inkscape:window-y="25"
     inkscape:window-maximized="1" />
  <metadata
     id="metadata3245">
    <rdf:RDF>
      <cc:Work
         rdf:about="">
        <dc:format>image/svg+xml</dc:format>
        <dc:type
           rdf:resource="http://purl.org/dc/dcmitype/StillImage" />
        <dc:title />
      </cc:Work>
    </rdf:RDF>
  </metadata>
  <g
     inkscape:label="Layer 1"
     inkscape:groupmode="layer"
     id="layer1"
     transform="translate(-381.10187,-403.02491)">
    <g
       id="g3147"
       transform="translate(17.142855,185.71428)">
      <g
         transform="translate(-206.38473,-11.885946)"
         id="g4905">
        <g
           id="g4853">
          <g
             id="g4831">
            <g
               id="g4805">
              <g
                 id="g4799">
                <g
                   id="g4795">
                  <path
                     inkscape:connector-curvature="0"
                     id="path4760"
                     d="m 655.78571,247.45147 c 0,0 5.25,5.5 7.75,6.5 2.5,1 6.875,1.875 6.875,1.875 0,0 1.25,7.875 -1.375,19 -2.625,11.125 -3.875,15.5 -7.625,22.375 -3.75,6.875 -8.125,12.625 -8.125,12.625 l -15.25,-18.625 z"
                     style="fill:#606078;fill-opacity:1;stroke:#000000;stroke-width:1px;stroke-linecap:butt;stroke-linejoin:miter;stroke-opacity:1" />
                  <path
                     inkscape:connector-curvature="0"
                     id="path4762"
                     d="m 657.41071,271.45147 c 0,0 2,0.5 1.875,7.375 -0.125,6.875 -2.5,24.625 -4.25,28.25 -1.75,3.625 -14,-15 -14,-15 z"
                     style="fill:#202028;fill-opacity:1;stroke:#000000;stroke-width:1px;stroke-linecap:butt;stroke-linejoin:miter;stroke-opacity:1" />
                </g>
                <path
                   style="fill:#606078;fill-opacity:1;stroke:#000000;stroke-width:1px;stroke-linecap:butt;stroke-linejoin:miter;stroke-opacity:1"
                   d="m 651.78571,244.07647 c 0,0 -1,1.875 1.375,6.75 2.375,4.875 6,5.5 6,5.5 l 3.25,8.25 c 0,0 -2.125,8.125 -7,13.25 -4.875,5.125 -10,9.625 -14.875,11 -4.875,1.375 -39,-3.75 -39,-3.75 0,0 -3.5,-0.75 -6.125,-4.375 -2.625,-3.625 -4.5,-11.875 -3.5,-14.5 1,-2.625 3.375,-5.75 3.375,-5.75 0,0 5.5,-3.125 6.5,-5.25 1,-2.125 0.625,-3 0.625,-3"
                   id="path4732"
                   inkscape:connector-curvature="0" />
              </g>
              <g
                 id="g4754">
                <g
                   id="g4750">
                  <path
                     transform="translate(302.28571,166.07647)"
                     inkscape:connector-curvature="0"
                     id="path4746"
                     d="m 311.75,92.125 c 0,0 -1.625,-3.5 -7.375,-4.625 -5.75,-1.125 -6.5,-3.5 -4.125,-7.625 C 302.625,75.75 305.75,71.5 316,67 c 10.25,-4.5 21.375,-4.125 29,-1 7.625,3.125 8.25,9.625 11,14.875 2.75,5.25 3.5,5.75 3.5,5.75"
                     style="fill:#606078;fill-opacity:1;stroke:#000000;stroke-width:1px;stroke-linecap:butt;stroke-linejoin:miter;stroke-opacity:1" />
                  <path
                     transform="translate(302.28571,166.07647)"
                     inkscape:connector-curvature="0"
                     id="path4748"
                     d="m 327.25,91.5 c 0,0 -0.375,-1.875 5,-3.625 5.375,-1.75 11.875,-4 12,-7.625 0.125,-3.625 -2.125,-5.25 -5.625,-7.25 -3.5,-2 -3.5,-1.375 -5.5,-3.25"
                     style="fill:none;stroke:#000000;stroke-width:1px;stroke-linecap:butt;stroke-linejoin:miter;stroke-opacity:1" />
                </g>
                <path
                   inkscape:connector-curvature="0"
                   style="fill:#202028;fill-opacity:1;stroke:#000000;stroke-width:1px;stroke-linecap:butt;stroke-linejoin:miter;stroke-opacity:1"
                   d="m 320.9375,71.21875 c -7.19602,-0.185719 -8.88281,4.507812 -8.0625,7.40625 0.9375,3.3125 5.5,8 5.5,8 4.25,-1.5 14.375,-13.375 6,-15 -1.26125,-0.24472 -2.4095,-0.379719 -3.4375,-0.40625 z M 320.40625,74.25 c 0.25124,0.0032 0.50332,0.04382 0.75,0.09375 1.97345,0.399406 2.92847,2.182841 2.15625,4 -0.77222,1.817159 -2.9953,2.961906 -4.96875,2.5625 -1.97345,-0.399406 -2.92847,-2.182841 -2.15625,-4 0.67569,-1.590014 2.4601,-2.67899 4.21875,-2.65625 z"
                   transform="translate(302.28571,166.07647)"
                   id="path4727" />
              </g>
            </g>
            <g
               id="g4821">
              <g
                 id="g4626">
                <path
                   style="fill:#ffffff;fill-opacity:1;stroke:#000000;stroke-width:1px;stroke-linecap:butt;stroke-linejoin:miter;stroke-opacity:1"
                   d="m 272.97643,161.7152 c -0.39942,-1.54064 2.28495,-6.3023 7.53454,-5.38933 5.2496,0.91298 6.96142,2.39656 11.18392,2.05419 4.2225,-0.34236 9.4721,-3.42365 9.4721,-3.42365 l 1.5977,6.96142 3.88014,4.67899 7.98851,3.65189 10.49919,-1.02709 7.53203,-6.39081 2.6248,-15.06406 -17.00413,-19.62892 -39.82845,16.77588 -5.13547,5.24959 -1.48358,6.39082 z"
                   id="path4624"
                   inkscape:connector-curvature="0"
                   transform="translate(302.28571,166.07647)"
                   sodipodi:nodetypes="csscccccccccccc" />
                <path
                   style="fill:#606078;fill-opacity:1;stroke:#000000;stroke-width:1px;stroke-linecap:butt;stroke-linejoin:miter;stroke-opacity:1"
                   d="m 302.28789,126.51901 c 0,0 0.48418,5.81013 -5.97152,9.52215 -6.45569,3.71203 -15.81645,4.03481 -21.94936,10.16772 -6.13291,6.13291 -1.45253,15.33228 -1.45253,15.33228 0,0 -2.90506,-12.58861 7.42405,-16.13924 10.32911,-3.55063 20.33544,-4.68038 22.27214,-8.87658 1.93671,-4.1962 4.51899,-7.10126 4.51899,-7.10126"
                   id="path4622"
                   inkscape:connector-curvature="0"
                   transform="translate(302.28571,166.07647)" />
                <path
                   style="fill:#606078;fill-opacity:1;stroke:#000000;stroke-width:1px;stroke-linecap:butt;stroke-linejoin:miter;stroke-opacity:1"
                   d="m 339.56953,122.48421 c 0,0 9.36075,20.981 5.00316,32.60125 -4.3576,11.62025 -14.8481,18.07595 -23.88607,17.75316 -9.03797,-0.32278 -16.30063,-4.35759 -19.52848,-11.78164 -3.22784,-7.42405 3.06646,-17.91455 3.06646,-17.91455 0,0 -4.51899,11.13607 -0.96836,17.91455 3.55064,6.77848 11.13608,9.68354 19.52848,7.58544 8.3924,-2.0981 12.10443,-12.26582 9.68354,-18.39873 -2.42088,-6.13291 -5.64873,-6.2943 -5.64873,-6.2943"
                   id="path4601"
                   inkscape:connector-curvature="0"
                   transform="translate(302.28571,166.07647)" />
                <path
                   style="fill:#606078;fill-opacity:1;stroke:#000000;stroke-width:1px;stroke-linecap:butt;stroke-linejoin:miter;stroke-opacity:1"
                   d="m 644.43751,289.36764 c 0,0 -2.90506,3.55063 7.42405,13.55696 10.32911,10.00632 13.23418,13.87974 14.04114,23.56328 0.80696,9.68354 -8.87658,23.72468 -8.87658,23.72468 0,0 -8.39241,-2.90507 -12.75,-16.46202 -4.35759,-13.55696 -3.71202,-20.98101 -3.71202,-20.98101"
                   id="path4581"
                   inkscape:connector-curvature="0"
                   sodipodi:nodetypes="csscsc" />
              </g>
              <g
                 id="g4817">
                <path
                   inkscape:connector-curvature="0"
                   style="fill:#000000;fill-opacity:1;stroke:none"
                   d="m 298.28125,141.46875 c -1.18544,0 -2.3367,0.82097 -2.5625,1.84375 -0.2258,1.02278 0.56456,1.875 1.75,1.875 1.18544,0 2.30545,-0.85222 2.53125,-1.875 0.2258,-1.02278 -0.53331,-1.84375 -1.71875,-1.84375 z m -7.9375,2.28125 c -0.27748,0.0165 -0.57864,0.0698 -0.875,0.1875 -1.18544,0.47087 -1.94455,1.62941 -1.71875,2.5625 0.2258,0.93309 1.34581,1.31462 2.53125,0.84375 1.18544,-0.47087 1.9758,-1.62941 1.75,-2.5625 -0.16935,-0.69982 -0.85505,-1.08078 -1.6875,-1.03125 z m 3.59375,0.9375 c -1.02583,0 -1.89782,0.82097 -1.96875,1.84375 -0.0709,1.02278 0.69292,1.84375 1.71875,1.84375 1.02583,0 1.92907,-0.82097 2,-1.84375 0.0709,-1.02278 -0.72417,-1.84375 -1.75,-1.84375 z m 4.1875,1.5625 c -1.18544,0 -2.19928,0.82097 -2.28125,1.84375 -0.082,1.02278 0.81456,1.84375 2,1.84375 1.18544,0 2.19928,-0.82097 2.28125,-1.84375 0.082,-1.02278 -0.81456,-1.84375 -2,-1.84375 z m -13.5,0.65625 c -0.27748,0.002 -0.57864,0.0542 -0.875,0.15625 -1.18544,0.40809 -1.94455,1.49245 -1.71875,2.4375 0.2258,0.94505 1.37706,1.37684 2.5625,0.96875 1.18544,-0.40809 1.94455,-1.49245 1.71875,-2.4375 -0.16935,-0.70879 -0.85505,-1.13044 -1.6875,-1.125 z m 5.34375,1.03125 c -1.18544,0 -2.20341,0.82097 -2.28125,1.84375 -0.0778,1.02278 0.81456,1.84375 2,1.84375 1.18544,0 2.20341,-0.82097 2.28125,-1.84375 0.0778,-1.02278 -0.81456,-1.84375 -2,-1.84375 z m 4.25,1.375 c -1.02583,0.15942 -1.92907,1.1537 -2,2.1875 -0.0709,1.0338 0.69292,1.72192 1.71875,1.5625 1.02583,-0.15942 1.92907,-1.12245 2,-2.15625 0.0709,-1.0338 -0.69292,-1.75317 -1.71875,-1.59375 z m 4.3125,1.40625 c -1.18544,0 -2.48868,0.85222 -2.90625,1.875 -0.41757,1.02278 0.22081,1.84375 1.40625,1.84375 1.18544,0 2.48868,-0.82097 2.90625,-1.84375 0.41757,-1.02278 -0.22081,-1.875 -1.40625,-1.875 z m -14.6875,0.96875 c -1.31313,0 -2.30955,0.73007 -2.21875,1.625 0.0908,0.89493 1.21812,1.625 2.53125,1.625 1.31313,0 2.30955,-0.73007 2.21875,-1.625 -0.0908,-0.89493 -1.21812,-1.625 -2.53125,-1.625 z m 6.4375,0.375 c -0.4241,-0.006 -0.89921,0.0778 -1.34375,0.28125 -1.18544,0.54249 -1.79257,1.66831 -1.375,2.5 0.41757,0.83169 1.72081,1.07374 2.90625,0.53125 1.18544,-0.54249 1.79257,-1.66831 1.375,-2.5 -0.26098,-0.51981 -0.85567,-0.80316 -1.5625,-0.8125 z"
                   transform="translate(302.28571,166.07647)"
                   id="path4632" />
                <path
                   inkscape:connector-curvature="0"
                   style="fill:#202028;fill-opacity:1;stroke:none"
                   d="m 298.21875,142.5625 c -0.68317,0 -1.33862,0.47307 -1.46875,1.0625 -0.13013,0.58943 0.31683,1.0625 1,1.0625 0.68317,0 1.33862,-0.47307 1.46875,-1.0625 0.13013,-0.58943 -0.31683,-1.0625 -1,-1.0625 z m -8.1875,2.3125 c -0.15992,0.01 -0.32921,0.0572 -0.5,0.125 -0.68317,0.27137 -1.13013,0.93101 -1,1.46875 0.13013,0.53774 0.78558,0.74012 1.46875,0.46875 0.68317,-0.27137 1.13013,-0.89976 1,-1.4375 -0.0976,-0.40331 -0.489,-0.65354 -0.96875,-0.625 z m 4,0.875 c -0.59119,0 -1.11537,0.47307 -1.15625,1.0625 -0.0409,0.58943 0.40881,1.09375 1,1.09375 0.59119,0 1.11537,-0.50432 1.15625,-1.09375 0.0409,-0.58943 -0.40881,-1.0625 -1,-1.0625 z m 4.1875,1.5625 c -0.68317,0 -1.26526,0.47307 -1.3125,1.0625 -0.0472,0.58943 0.47308,1.09375 1.15625,1.09375 0.68317,0 1.26526,-0.50432 1.3125,-1.09375 0.0472,-0.58943 -0.47308,-1.0625 -1.15625,-1.0625 z m -13.90625,0.71875 c -0.15992,0.001 -0.32921,0.004 -0.5,0.0625 -0.68317,0.23518 -1.13013,0.89286 -1,1.4375 0.13013,0.54464 0.78558,0.79768 1.46875,0.5625 0.68317,-0.23518 1.13013,-0.89286 1,-1.4375 -0.0976,-0.40848 -0.489,-0.62813 -0.96875,-0.625 z M 289.6875,149 c -0.68317,0 -1.26764,0.47307 -1.3125,1.0625 -0.0449,0.58943 0.47308,1.0625 1.15625,1.0625 0.68317,0 1.26764,-0.47307 1.3125,-1.0625 C 290.88861,149.47307 290.37067,149 289.6875,149 z m 4.59375,1.375 c -0.59119,0.0919 -1.08412,0.65421 -1.125,1.25 -0.0409,0.59579 0.37756,0.99813 0.96875,0.90625 0.59119,-0.0919 1.11537,-0.62296 1.15625,-1.21875 0.0409,-0.59579 -0.40881,-1.02938 -1,-0.9375 z m 4,1.4375 c -0.68317,0 -1.44685,0.47307 -1.6875,1.0625 -0.24065,0.58943 0.12933,1.0625 0.8125,1.0625 0.68317,0 1.44685,-0.47307 1.6875,-1.0625 0.24065,-0.58943 -0.12933,-1.0625 -0.8125,-1.0625 z m -14.5625,0.8125 c -0.75676,0 -1.30233,0.42175 -1.25,0.9375 0.0523,0.51575 0.68074,0.9375 1.4375,0.9375 0.75676,0 1.33358,-0.42175 1.28125,-0.9375 -0.0523,-0.51575 -0.71199,-0.9375 -1.46875,-0.9375 z m 6,0.53125 c -0.17004,0.0238 -0.36046,0.0781 -0.53125,0.15625 -0.68317,0.31264 -1.0219,0.95819 -0.78125,1.4375 0.24065,0.47931 0.97308,0.59389 1.65625,0.28125 0.68317,-0.31264 1.05315,-0.92694 0.8125,-1.40625 -0.18049,-0.35948 -0.64613,-0.54018 -1.15625,-0.46875 z"
                   transform="translate(302.28571,166.07647)"
                   id="path4634" />
              </g>
            </g>
          </g>
          <g
             id="g4776">
            <g
               id="g4558">
              <path
                 transform="translate(302.28571,166.07647)"
                 inkscape:connector-curvature="0"
                 id="path4556"
                 d="m 302.69137,116.2706 c 0,0 0.16139,0.96835 -1.21044,1.53323 -1.37184,0.56487 -3.30854,0.16139 -3.30854,0.16139 0,0 -0.24209,0.80696 0.40348,2.25949 0.64557,1.45253 3.55063,3.71203 3.55063,3.71203 l 36.63606,3.95411 c 0,0 3.55064,0 5.00317,-3.14715 1.45253,-3.14715 1.04905,-4.1962 1.04905,-4.1962 0,0 -3.46994,1.37183 -6.77848,-0.32279 -3.30855,-1.69462 -3.22785,-2.34019 -3.79272,-3.14715 -0.56488,-0.80696 -0.48418,-1.53323 -0.48418,-1.53323"
                 style="fill:#606078;fill-opacity:1;stroke:#000000;stroke-width:1px;stroke-linecap:butt;stroke-linejoin:miter;stroke-opacity:1"
                 sodipodi:nodetypes="cscsccscssc" />
              <path
                 transform="translate(302.28571,166.07647)"
                 inkscape:connector-curvature="0"
                 id="path4554"
                 d="m 302.69137,120.22471 c 0,0 0.24209,1.53323 -2.42088,2.34019 -2.66298,0.80696 -2.2595,2.50158 -1.85602,4.43829 0.40348,1.93671 0.24209,3.87342 0.24209,3.87342 0,0 1.53323,-0.56487 1.77532,-1.37184 0.24209,-0.80696 2.82436,-2.42088 4.35759,-2.90506 1.53323,-0.48418 24.45094,7.10126 25.66139,9.03797 1.21044,1.93671 2.17879,4.84177 3.14715,5.32595 0.96835,0.48418 1.53323,-0.64557 1.93671,-2.90506 0.40348,-2.25949 4.76107,-4.59968 5.08386,-7.66614 0.32278,-3.06645 0.0807,-3.06645 -1.29114,-4.43829 -1.37184,-1.37183 -2.34019,-3.46993 -2.34019,-3.46993"
                 style="fill:#606078;fill-opacity:1;stroke:#000000;stroke-width:1px;stroke-linecap:butt;stroke-linejoin:miter;stroke-opacity:1" />
              <path
                 sodipodi:nodetypes="ccccssssssccsssssssc"
                 inkscape:connector-curvature="0"
                 id="path4549"
                 transform="translate(302.28571,166.07647)"
                 d="m 324.25,107.5625 c 0,0 -0.0144,0.0651 0,0.1875 z m -17.53125,7.8125 c 0,0 -2.39834,0.88687 -2.15625,4.4375 0.24209,3.55063 -0.003,4.70174 -1.375,7.6875 -1.37184,2.98576 -2.43196,4.01978 -1.625,7.8125 0.80697,3.79272 2.81289,6.70293 3.78125,6.21875 0.96835,-0.48417 0.0186,-4.20095 0.90625,-5.25 0.88766,-1.04905 2.10205,-0.38608 3.3125,-2 1.21044,-1.61393 2.25,-3.5625 2.25,-3.5625 l 10.65625,1.9375 c 0,0 -1.4731,2.91496 0.625,5.09375 2.09811,2.1788 2.52334,1.99842 2.28125,4.5 -0.24209,2.50158 -1.94778,2.58386 -1.625,3.875 0.32279,1.29114 3.3216,-0.48616 6.46875,-4.84375 3.14715,-4.3576 1.60759,-9.74644 3.625,-13.78125 2.0174,-4.03481 2.59018,-4.7769 0.25,-6.875 -2.34019,-2.0981 -7.60206,-6.68355 -8.8125,-9.75 -0.83643,-2.11896 -0.99902,-2.85126 -1.03125,-3.125"
                 style="fill:#606078;fill-opacity:1;stroke:#000000;stroke-width:1px;stroke-linecap:butt;stroke-linejoin:miter;stroke-opacity:1" />
              <path
                 sodipodi:nodetypes="cscssssc"
                 transform="translate(302.28571,166.07647)"
                 inkscape:connector-curvature="0"
                 id="path4547"
                 d="m 320.04105,114.0918 c 0,0 0.72627,4.3576 2.90506,7.02057 2.1788,2.66297 3.38924,2.42089 3.38924,2.42089 0,0 -0.56487,3.95411 -2.98575,8.55379 -2.42089,4.59968 -3.22785,5.48734 -3.22785,8.63449 0,3.14715 -0.0807,9.92563 -5.16456,5.81013 -5.08386,-4.11551 -3.14715,-9.92563 -5.56804,-19.125 -2.42088,-9.19936 -1.45253,-8.95727 0.72627,-12.34651"
                 style="fill:#606078;fill-opacity:1;stroke:#000000;stroke-width:1px;stroke-linecap:butt;stroke-linejoin:miter;stroke-opacity:1" />
            </g>
            <g
               id="g4770">
              <path
                 transform="translate(302.28571,166.07647)"
                 inkscape:connector-curvature="0"
                 id="path4768"
                 d="m 292.375,100.875 c 0,0 -1.75,1.25 -1.125,4.875 0.625,3.625 1.75,8.5 3.625,8.875 1.875,0.375 16.375,-0.875 17.875,-2 1.5,-1.125 2.875,-4.625 4.25,-5.5 1.375,-0.875 1.125,-1.25 2.25,-0.75 1.125,0.5 7.625,4.875 9.125,6 1.5,1.125 13.125,4.75 15.5,4.375 2.375,-0.375 9.5,-9.5 10.875,-12.75 1.375,-3.25 2,-4.625 0.5,-5.375 -1.5,-0.75 -14.375,-2.125 -14.375,-2.125 l -22.25,6.75 -14,-4 z"
                 style="fill:#ffffff;fill-opacity:1;stroke:#000000;stroke-width:1px;stroke-linecap:butt;stroke-linejoin:miter;stroke-opacity:1" />
              <path
                 transform="translate(302.28571,166.07647)"
                 inkscape:connector-curvature="0"
                 id="path4725"
                 d="m 284.25,107.625 c 0,0 2.5,-6.25 11.625,-7 9.125,-0.75 14.625,0.75 16.75,1.75 2.125,1 5.875,1.625 5.875,1.625 0,0 9.625,-3.875 18.125,-5.125 8.5,-1.25 13.5,-1.125 19.625,0.25 6.125,1.375 11.625,3.75 11.625,3.75 0,0 -1.125,-4.625 -5.875,-7.875 -4.75,-3.25 -3.75,-7.5 -3.75,-7.5 0,0 -8.125,-0.875 -22,5.625 -13.875,6.5 -16.25,9 -17.25,9 -1,0 -5.125,-3.125 -14.5,-6.25 -9.375,-3.125 -16.75,-2.125 -16.75,-2.125 0,0 0.75,5.5 -0.75,7.625 -1.5,2.125 -3,4.375 -2.75,6.25 z"
                 style="fill:#202028;fill-opacity:1;stroke:#000000;stroke-width:1px;stroke-linecap:butt;stroke-linejoin:miter;stroke-opacity:1" />
            </g>
          </g>
        </g>
        <g
           id="g4898">
          <path
             transform="translate(302.28571,166.07647)"
             inkscape:connector-curvature="0"
             id="path4885"
             d="m 278.77685,169.90633 -6.54074,-64.87705"
             style="fill:none;stroke:#000000;stroke-width:3;stroke-linecap:square;stroke-linejoin:miter;stroke-miterlimit:4;stroke-opacity:1;stroke-dasharray:none" />
          <g
             id="g4893">
            <path
               style="fill:#000000;fill-opacity:1;stroke:#000000;stroke-width:1px;stroke-linecap:butt;stroke-linejoin:miter;stroke-opacity:1"
               d="m 570.63274,273.40385 c 6.89429,-4.94974 3.18198,-20.68287 3.18198,-20.68287 0,0 4.94975,15.73313 -0.53033,22.27386"
               id="path4887"
               inkscape:connector-curvature="0" />
            <path
               style="fill:none;stroke:#000000;stroke-width:1px;stroke-linecap:butt;stroke-linejoin:miter;stroke-opacity:1"
               d="m 571.63794,278.49744 c 0,0 2.47487,-0.88389 2.47487,-2.47488"
               id="path4889"
               inkscape:connector-curvature="0" />
            <path
               inkscape:connector-curvature="0"
               id="path4891"
               d="m 571.86244,282.41655 c 0,0 2.99762,-2.83673 2.37943,-4.3027"
               style="fill:none;stroke:#000000;stroke-width:1px;stroke-linecap:butt;stroke-linejoin:miter;stroke-opacity:1"
               sodipodi:nodetypes="cc" />
          </g>
        </g>
      </g>
      <path
         sodipodi:nodetypes="cscccc"
         inkscape:connector-curvature="0"
         id="path4944"
         d="m 428.52128,264.11633 c 0,0 10.23023,0.41936 10.97728,-2.96942 0.74705,-3.38877 -2.43915,-3.0318 -2.43915,-3.0318 0,0 3.75414,-2.33408 6.54915,3.96293 0,0 0.38651,5.52315 -6.71408,6.14474 -2e-5,10e-6 2.78542,-2.42928 -8.3732,-4.10645 z"
         style="fill:#000000;fill-opacity:1;stroke:none" />
      <path
         style="fill:#000000;fill-opacity:1;stroke:none"
         d="m 401.49973,263.85551 c 0,0 -8.70555,0.14086 -9.15232,-2.26559 -0.44676,-2.40643 2.23762,-2.1057 2.23762,-2.1057 0,0 -3.05716,-1.70673 -5.77722,2.70132 0,0 -0.63322,3.89771 5.35869,4.44499 2e-5,0 -2.22975,-1.7593 7.33323,-2.77502 z"
         id="path4962"
         inkscape:connector-curvature="0"
         sodipodi:nodetypes="cscccc" />
    </g>
  </g>
</svg>
