<?xml version="1.0" encoding="UTF-8" standalone="no"?>
<!-- Created with Inkscape (http://www.inkscape.org/) -->

<svg
   xmlns:dc="http://purl.org/dc/elements/1.1/"
   xmlns:cc="http://creativecommons.org/ns#"
   xmlns:rdf="http://www.w3.org/1999/02/22-rdf-syntax-ns#"
   xmlns:svg="http://www.w3.org/2000/svg"
   xmlns="http://www.w3.org/2000/svg"
   xmlns:sodipodi="http://sodipodi.sourceforge.net/DTD/sodipodi-0.dtd"
   xmlns:inkscape="http://www.inkscape.org/namespaces/inkscape"
   width="28.027905"
   height="28.027905"
   id="svg2"
   version="1.1"
   inkscape:version="0.48.3.1 r9886"
   sodipodi:docname="icon-chrome_small.svg">
  <defs
     id="defs4" />
  <sodipodi:namedview
     id="base"
     pagecolor="#ffffff"
     bordercolor="#666666"
     borderopacity="1.0"
     inkscape:pageopacity="0.0"
     inkscape:pageshadow="2"
     inkscape:zoom="22.627417"
     inkscape:cx="16.500675"
     inkscape:cy="12.589245"
     inkscape:document-units="px"
     inkscape:current-layer="layer1"
     showgrid="false"
     inkscape:window-width="1440"
     inkscape:window-height="848"
     inkscape:window-x="0"
     inkscape:window-y="25"
     inkscape:window-maximized="1"
     fit-margin-top="0"
     fit-margin-left="0"
     fit-margin-right="0"
     fit-margin-bottom="0" />
  <metadata
     id="metadata7">
    <rdf:RDF>
      <cc:Work
         rdf:about="">
        <dc:format>image/svg+xml</dc:format>
        <dc:type
           rdf:resource="http://purl.org/dc/dcmitype/StillImage" />
        <dc:title />
      </cc:Work>
    </rdf:RDF>
  </metadata>
  <g
     inkscape:label="Layer 1"
     inkscape:groupmode="layer"
     id="layer1"
     transform="translate(-117.8296,-895.51511)">
    <path
       sodipodi:type="arc"
       style="fill:#ffffff;fill-opacity:1;stroke:none"
       id="path3764"
       sodipodi:cx="304.65921"
       sodipodi:cy="506.58228"
       sodipodi:rx="230.53091"
       sodipodi:ry="230.53091"
       d="m 535.19012,506.58228 a 230.53091,230.53091 0 1 1 -461.061824,0 230.53091,230.53091 0 1 1 461.061824,0 z"
       transform="matrix(-0.0605146,0,0,-0.0605146,150.27892,940.1828)" />
    <g
       id="g3788">
      <path
         id="rect3878-2"
         transform="translate(117.8296,895.51511)"
         d="m 14,0.0625 c -2.45536,0 -4.74589,0.63628 -6.75,1.75 L 6.875,2.03125 C 4.85736,3.2368 3.15873,4.94081 1.96875,6.96875 L 7.9375,17.28125 C 7.4144976,16.309165 7.125,15.181183 7.125,14 7.125,10.188517 10.188517,7.125 14,7.125 l 11.96875,0 0.125,-0.09375 C 23.68132,2.86271 19.1627,0.0625 14,0.0625 z"
         style="fill:#e04d2b;fill-opacity:1;stroke:#e04d2b;stroke-width:0.061;stroke-linejoin:round;stroke-miterlimit:4;stroke-opacity:1;stroke-dasharray:none"
         inkscape:connector-curvature="0" />
      <path
         id="path3891"
         transform="translate(117.8296,895.51511)"
         d="m 14,7.125 c 3.811483,0 6.90625,3.063517 6.90625,6.875 0,1.256933 -0.319135,2.453712 -0.90625,3.46875 -0.08052,0.1392 -0.160259,0.273415 -0.25,0.40625 l -5.75,9.9375 0,0.15625 c 4.81628,-0.005 9.5124,-2.49772 12.09375,-6.96875 1.22767,-2.1264 1.83746,-4.45753 1.875,-6.75 l 0,-0.4375 C 27.93355,11.4624 27.28626,9.16954 26.125,7.125 L 14,7.125 z"
         style="fill:#f9db46;fill-opacity:1;stroke:#f9db46;stroke-width:0.0605146;stroke-linejoin:round;stroke-opacity:1"
         inkscape:connector-curvature="0" />
      <path
         id="rect3860-2"
         transform="translate(117.8296,895.51511)"
         d="M 1.9375,7.03125 C 0.74967,9.08372 0.0625,11.45802 0.0625,14 c 0,5.12077 2.76239,9.60475 6.875,12.03125 l 0.25,0.15625 c 1.9951,1.12144 4.30174,1.76689 6.75,1.78125 L 19.75,17.875 c -1.240214,1.835758 -3.367823,3.03125 -5.75,3.03125 -2.55455,0 -4.7755153,-1.37457 -5.96875,-3.4375 C 7.995867,17.40758 7.97104,17.34359 7.9375,17.28125 L 2.0625,7.09375 1.9375,7.03125 z"
         style="fill:#71d375;fill-opacity:1;stroke:#71d375;stroke-width:0.0605146;stroke-linejoin:round;stroke-opacity:1"
         inkscape:connector-curvature="0" />
    </g>
    <path
       sodipodi:type="arc"
       style="fill:#25abd9;fill-opacity:1;stroke:none"
       id="path3768"
       sodipodi:cx="304.65921"
       sodipodi:cy="506.58228"
       sodipodi:rx="230.53091"
       sodipodi:ry="230.53091"
       d="m 535.19012,506.58228 a 230.53091,230.53091 0 1 1 -461.061824,0 230.53091,230.53091 0 1 1 461.061824,0 z"
       transform="matrix(0.02330774,0,0,0.02330774,124.7425,897.71988)" />
  </g>
</svg>
