<?xml version="1.0" encoding="UTF-8" standalone="no"?>
<!-- Created with Inkscape (http://www.inkscape.org/) -->

<svg
   xmlns:dc="http://purl.org/dc/elements/1.1/"
   xmlns:cc="http://creativecommons.org/ns#"
   xmlns:rdf="http://www.w3.org/1999/02/22-rdf-syntax-ns#"
   xmlns:svg="http://www.w3.org/2000/svg"
   xmlns="http://www.w3.org/2000/svg"
   xmlns:sodipodi="http://sodipodi.sourceforge.net/DTD/sodipodi-0.dtd"
   xmlns:inkscape="http://www.inkscape.org/namespaces/inkscape"
   version="1.1"
   width="14"
   height="20"
   id="svg3800"
   inkscape:version="0.47 r22583"
   sodipodi:docname="microphone.svg">
  <metadata
     id="metadata3890">
    <rdf:RDF>
      <cc:Work
         rdf:about="">
        <dc:format>image/svg+xml</dc:format>
        <dc:type
           rdf:resource="http://purl.org/dc/dcmitype/StillImage" />
      </cc:Work>
    </rdf:RDF>
  </metadata>
  <sodipodi:namedview
     pagecolor="#ffffff"
     bordercolor="#666666"
     borderopacity="1"
     objecttolerance="10"
     gridtolerance="10"
     guidetolerance="10"
     inkscape:pageopacity="0"
     inkscape:pageshadow="2"
     inkscape:window-width="1680"
     inkscape:window-height="999"
     id="namedview3888"
     showgrid="false"
     inkscape:zoom="11.8"
     inkscape:cx="-23.169492"
     inkscape:cy="9.9152542"
     inkscape:window-x="0"
     inkscape:window-y="26"
     inkscape:window-maximized="1"
     inkscape:current-layer="layer1" />
  <defs
     id="defs3802">
    <inkscape:perspective
       sodipodi:type="inkscape:persp3d"
       inkscape:vp_x="0 : 10 : 1"
       inkscape:vp_y="0 : 1000 : 0"
       inkscape:vp_z="14 : 10 : 1"
       inkscape:persp3d-origin="7 : 6.6666667 : 1"
       id="perspective3892" />
  </defs>
  <g
     transform="translate(-350.14286,-493.79075)"
     id="layer1">
    <path
       d="m 357.14286,493.79075 c -1.662,0 -3,1.338 -3,3 l 0,7 c 0,1.662 1.338,3 3,3 1.662,0 3,-1.338 3,-3 l 0,-7 c 0,-1.662 -1.338,-3 -3,-3 z m -5,8 c -1,0 -2,0 -2,2 0,3.52482 2.61003,6.41897 6,6.90625 l -1,2.09375 1,1 2,0 1,-1 -1,-2.09375 c 3.38997,-0.48728 6,-3.38143 6,-6.90625 0,-2 -1,-2 -2,-2 l 0,2 c 0,2.76143 -2.23858,5 -5,5 -2.76143,0 -5,-2.23857 -5,-5 l 0,-2 z"
       id="path3004"
       style="fill:#000000;fill-opacity:0.62745098;fill-rule:nonzero;stroke:none" />
    <path
       d="m 357.14286,493.79075 c -1.662,0 -3,1.338 -3,3 l 0,7 c 0,1.662 1.338,3 3,3 1.662,0 3,-1.338 3,-3 l 0,-7 c 0,-1.662 -1.338,-3 -3,-3 z m -5,8 c -1,0 -2,0 -2,2 0,3.52482 2.61003,6.41897 6,6.90625 l -1,2.09375 1,1 2,0 1,-1 -1,-2.09375 c 3.38997,-0.48728 6,-3.38143 6,-6.90625 0,-2 -1,-2 -2,-2 l 0,2 c 0,2.76143 -2.23858,5 -5,5 -2.76143,0 -5,-2.23857 -5,-5 l 0,-2 z"
       id="path3819"
       style="fill:#000000;fill-opacity:0.62745099999999998;fill-rule:nonzero;stroke:none;opacity:0" />
  </g>
</svg>
