<?xml version="1.0" encoding="UTF-8" standalone="no"?>
<!-- Created with Inkscape (http://www.inkscape.org/) -->

<svg
   xmlns:dc="http://purl.org/dc/elements/1.1/"
   xmlns:cc="http://creativecommons.org/ns#"
   xmlns:rdf="http://www.w3.org/1999/02/22-rdf-syntax-ns#"
   xmlns:svg="http://www.w3.org/2000/svg"
   xmlns="http://www.w3.org/2000/svg"
   xmlns:sodipodi="http://sodipodi.sourceforge.net/DTD/sodipodi-0.dtd"
   xmlns:inkscape="http://www.inkscape.org/namespaces/inkscape"
   version="1.1"
   width="20"
   height="20"
   id="svg3621"
   inkscape:version="0.48.3.1 r9886"
   sodipodi:docname="search.svg">
  <metadata
     id="metadata10">
    <rdf:RDF>
      <cc:Work
         rdf:about="">
        <dc:format>image/svg+xml</dc:format>
        <dc:type
           rdf:resource="http://purl.org/dc/dcmitype/StillImage" />
      </cc:Work>
    </rdf:RDF>
  </metadata>
  <sodipodi:namedview
     pagecolor="#ffffff"
     bordercolor="#666666"
     borderopacity="1"
     objecttolerance="10"
     gridtolerance="10"
     guidetolerance="10"
     inkscape:pageopacity="0"
     inkscape:pageshadow="2"
     inkscape:window-width="1440"
     inkscape:window-height="848"
     id="namedview8"
     showgrid="true"
     inkscape:zoom="23.6"
     inkscape:cx="-1.0393937"
     inkscape:cy="11.927966"
     inkscape:window-x="0"
     inkscape:window-y="25"
     inkscape:window-maximized="1"
     inkscape:current-layer="svg3621">
    <inkscape:grid
       type="xygrid"
       id="grid2818" />
  </sodipodi:namedview>
  <defs
     id="defs3623" />
  <path
     inkscape:connector-curvature="0"
     style="fill:#000000;fill-opacity:0.50196081;fill-rule:nonzero;stroke:none"
     d="M 11,2 C 7.6862915,2 5,4.6862915 5,8 c 0,1.2983081 0.4241017,2.486896 1.125,3.46875 l -2.03125,3.5 c -0.4155,0.719667 0.2068048,1.87 1.40625,2.5625 1.1994452,0.6925 2.49075,0.657167 2.90625,-0.0625 l 2.03125,-3.5 C 10.619608,13.985392 10.813552,14 11,14 14.313708,14 17,11.313708 17,8 17,4.6862915 14.313708,2 11,2 z m 0,2.5 c 1.932997,0 3.5,1.5670034 3.5,3.5 0,1.9329966 -1.567003,3.5 -3.5,3.5 C 9.0670034,11.5 7.5,9.9329966 7.5,8 7.5,6.0670034 9.0670034,4.5 11,4.5 z"
     id="path2821" />
</svg>
